<svg width="64" height="64" viewBox="0 0 64 64" fill="none" xmlns="http://www.w3.org/2000/svg">
<g clip-path="url(#clip0_1_16)">
<path d="M32 56C32 57.4747 30.8053 58.6667 29.3333 58.6667H13.3333C5.98133 58.6667 0 52.6853 0 45.3333V13.3333C0 5.98133 5.98133 0 13.3333 0H45.3333C52.6853 0 58.6667 5.98133 58.6667 13.3333V29.3333C58.6667 30.808 57.472 32 56 32C54.528 32 53.3333 30.808 53.3333 29.3333V13.3333C53.3333 8.92267 49.744 5.33333 45.3333 5.33333H13.3333C8.92267 5.33333 5.33333 8.92267 5.33333 13.3333V31.8907L12.8213 24.4027C16.9067 20.3147 23.5547 20.3147 27.6427 24.4027L41.8853 38.6453C42.928 39.688 42.928 41.3733 41.8853 42.416C41.3653 42.936 40.6827 43.1973 40 43.1973C39.3173 43.1973 38.6347 42.936 38.1147 42.416L23.872 28.1733C21.8667 26.1707 18.6027 26.168 16.592 28.1733L5.33333 39.432V45.3333C5.33333 49.744 8.92267 53.3333 13.3333 53.3333H29.3333C30.8053 53.3333 32 54.5253 32 56ZM40 9.33333C44.4107 9.33333 48 12.9227 48 17.3333C48 21.744 44.4107 25.3333 40 25.3333C35.5893 25.3333 32 21.744 32 17.3333C32 12.9227 35.5893 9.33333 40 9.33333ZM40 14.6667C38.5307 14.6667 37.3333 15.8613 37.3333 17.3333C37.3333 18.8053 38.5307 20 40 20C41.4693 20 42.6667 18.8053 42.6667 17.3333C42.6667 15.8613 41.4693 14.6667 40 14.6667ZM61.3333 48H53.3333V40C53.3333 38.5253 52.1387 37.3333 50.6667 37.3333C49.1947 37.3333 48 38.5253 48 40V48H40C38.528 48 37.3333 49.192 37.3333 50.6667C37.3333 52.1413 38.528 53.3333 40 53.3333H48V61.3333C48 62.808 49.1947 64 50.6667 64C52.1387 64 53.3333 62.808 53.3333 61.3333V53.3333H61.3333C62.8053 53.3333 64 52.1413 64 50.6667C64 49.192 62.8053 48 61.3333 48Z" fill="#4E4E4E"/>
</g>
<defs>
<clipPath id="clip0_1_16">
<rect width="64" height="64" fill="white"/>
</clipPath>
</defs>
</svg>
