<svg width="20" height="20" viewBox="0 0 20 20" fill="none" xmlns="http://www.w3.org/2000/svg">
<g clip-path="url(#clip0_93_113)">
<path d="M16.6667 6.66668C16.669 5.58739 16.4093 4.52367 15.9099 3.56691C15.4104 2.61015 14.6861 1.78896 13.7992 1.1739C12.9123 0.558845 11.8894 0.168306 10.8182 0.0358444C9.74712 -0.0966172 8.65984 0.0329592 7.64984 0.41344C6.63985 0.793921 5.73732 1.41393 5.01983 2.22019C4.30233 3.02645 3.79131 3.99486 3.53068 5.04221C3.27005 6.08955 3.26759 7.18452 3.52353 8.23302C3.77947 9.28152 4.28615 10.2522 5.00002 11.0617V17.9167C5.00002 18.3091 5.11087 18.6936 5.3198 19.0258C5.52874 19.358 5.82726 19.6245 6.18099 19.7945C6.53473 19.9645 6.92928 20.0311 7.31921 19.9866C7.70915 19.9422 8.0786 19.7886 8.38503 19.5433L9.74002 18.46C9.81386 18.4011 9.90554 18.3689 10 18.3689C10.0945 18.3689 10.1862 18.4011 10.26 18.46L11.615 19.5433C11.9214 19.7886 12.2909 19.9422 12.6808 19.9866C13.0708 20.0311 13.4653 19.9645 13.8191 19.7945C14.1728 19.6245 14.4713 19.358 14.6802 19.0258C14.8892 18.6936 15 18.3091 15 17.9167V11.0617C16.0736 9.84934 16.6664 8.28604 16.6667 6.66668ZM10 1.66668C10.9889 1.66668 11.9556 1.95992 12.7779 2.50933C13.6001 3.05874 14.241 3.83963 14.6194 4.75326C14.9979 5.66689 15.0969 6.67222 14.904 7.64213C14.711 8.61203 14.2348 9.50295 13.5356 10.2022C12.8363 10.9015 11.9454 11.3777 10.9755 11.5706C10.0056 11.7635 9.00024 11.6645 8.08661 11.2861C7.17298 10.9076 6.39208 10.2668 5.84268 9.44453C5.29327 8.62228 5.00002 7.65559 5.00002 6.66668C5.00135 5.341 5.52856 4.07 6.46595 3.13261C7.40335 2.19521 8.67435 1.668 10 1.66668ZM13.0975 18.29C13.027 18.3249 12.9479 18.3388 12.8697 18.3299C12.7916 18.3211 12.7176 18.2899 12.6567 18.24L11.3017 17.1567C10.9329 16.8596 10.4736 16.6976 10 16.6976C9.52646 16.6976 9.06715 16.8596 8.69836 17.1567L7.34419 18.24C7.28305 18.2891 7.20929 18.3199 7.1314 18.329C7.05352 18.338 6.97466 18.3249 6.90389 18.2911C6.83313 18.2574 6.77333 18.2043 6.73137 18.1381C6.68941 18.0718 6.66699 17.9951 6.66669 17.9167V12.4317C7.67833 13.0222 8.82867 13.3333 10 13.3333C11.1714 13.3333 12.3217 13.0222 13.3334 12.4317V17.9167C13.3343 17.995 13.3125 18.072 13.2707 18.1382C13.2288 18.2045 13.1687 18.2572 13.0975 18.29Z" fill="#777777"/>
</g>
<defs>
<clipPath id="clip0_93_113">
<rect width="20" height="20" fill="white"/>
</clipPath>
</defs>
</svg>
